<svg version="1.1" id="Layer_1" xmlns="http://www.w3.org/2000/svg" xmlns:xlink="http://www.w3.org/1999/xlink" x="0px" y="0px"
	 viewBox="0 0 256 256" enable-background="new 0 0 256 256" xml:space="preserve">
<path fill="#FF0044" d="M210,256H46c-25.4,0-46-20.6-46-46V46C0,20.6,20.6,0,46,0H210c25.4,0,46,20.6,46,46V210
	C256,235.4,235.4,256,210,256z"/>
<path fill="#FFFFFF" d="M219.9,212.2c-4.3,7-12,11.3-20.3,11.3H56.4c-8.3,0-16-4.3-20.3-11.3c-4.3-7-4.8-15.8-1-23.2l71.6-143.2
	c4-8.1,12.3-13.2,21.3-13.2c9,0,17.3,5.1,21.3,13.2L221,189C224.6,196.3,224.3,205.1,219.9,212.2L219.9,212.2z M140,86.2
	c0-3.3-2.7-6-6-6H122c-3.3,0-6,2.7-6,6v59.7c0,3.3,2.7,6,6,6H134c3.3,0,6-2.7,6-6V86.2L140,86.2z M140,181.7c0-3.3-2.7-6-6-6H122
	c-3.3,0-6,2.7-6,6v11.9c0,3.3,2.7,6,6,6H134c3.3,0,6-2.7,6-6V181.7L140,181.7z"/>
</svg>
